<svg width="172" height="1436" viewBox="0 0 172 1436" fill="none" xmlns="http://www.w3.org/2000/svg">
<path d="M39.7662 1227.48C102.559 1238.73 3.56818 1344.49 172 1436V0C172 0 122.505 111.385 39.7662 49.1293C-42.9722 -13.1261 44.7534 100.134 107.73 214.894C170.706 329.654 99.6256 343.352 94.4327 425.662C94.4327 425.662 6.52307 435.788 107.73 517.17C208.937 598.552 -17.8559 487.542 76.2413 556.877C170.339 626.211 44.7527 596.583 44.7527 596.583L6.52308 694.185C281.333 514.545 62.6662 926.331 62.6662 926.331C62.6662 926.331 -83.6033 1174.98 70.7923 1076.72C225.188 978.46 39.7662 1227.48 39.7662 1227.48Z" fill="#B9FF26"/>
</svg>
