<svg width="1437" height="88" viewBox="0 0 1437 88" fill="none" xmlns="http://www.w3.org/2000/svg">
<path d="M209.054 20.2877C197.802 52.3229 92.0239 1.82039 0.5 87.75H1436.75C1436.75 87.75 1325.35 62.4987 1387.61 20.2877C1449.88 -21.9233 1336.6 22.832 1221.82 54.9611C1107.04 87.0901 1093.34 50.8264 1011.01 48.1772C1011.01 48.1772 1000.89 3.32791 919.49 54.9611C838.094 106.594 949.123 -9.10964 879.776 38.8964C810.43 86.9024 840.063 22.8317 840.063 22.8317L742.444 3.32791C922.116 143.529 510.258 31.9707 510.258 31.9707C510.258 31.9707 261.568 -42.6523 359.844 36.1164C458.119 114.885 209.054 20.2877 209.054 20.2877Z" fill="#B9FF26"/>
</svg>
