<svg width="172" height="1436" viewBox="0 0 172 1436" fill="none" xmlns="http://www.w3.org/2000/svg">
<path d="M132.234 208.518C69.4412 197.267 168.432 91.508 0 0L0 1436C0 1436 49.4954 1324.62 132.234 1386.87C214.972 1449.13 127.247 1335.87 64.27 1221.11C1.2935 1106.35 72.3744 1092.65 77.5673 1010.34C77.5673 1010.34 165.477 1000.21 64.27 918.83C-36.9368 837.448 189.856 948.458 95.7587 879.123C1.66144 809.789 127.247 839.417 127.247 839.417L165.477 741.815C-109.333 921.455 109.334 509.669 109.334 509.669C109.334 509.669 255.603 261.023 101.208 359.281C-53.1879 457.54 132.234 208.518 132.234 208.518Z" fill="#B9FF26"/>
</svg>
