<svg width="1436" height="88" viewBox="0 0 1436 88" fill="none" xmlns="http://www.w3.org/2000/svg">
<path d="M1227.38 67.375C1238.62 35.5 1344.38 85.75 1435.88 0.249985L0 0.249985C0 0.249985 111.375 25.375 49.125 67.375C-13.125 109.375 100.125 64.8434 214.875 32.875C329.625 0.906593 343.322 36.9889 425.625 39.625C425.625 39.625 435.75 84.25 517.125 32.875C598.5 -18.5 487.5 96.6254 556.828 48.8594C626.156 1.09337 596.531 64.8438 596.531 64.8438L694.125 84.25C514.5 -55.25 926.25 55.7504 926.25 55.7504C926.25 55.7504 1174.88 130 1076.62 51.6254C978.375 -26.7494 1227.38 67.375 1227.38 67.375Z" fill="#B9FF26"/>
</svg>
